<svg width="24" height="24" viewBox="0 0 24 24" fill="none" xmlns="http://www.w3.org/2000/svg">
<g clip-path="url(#clip0_5413_6507)">
<path d="M17.1477 7.55925C17.8378 7.56625 18.7972 7.56925 19.611 7.56625C20.0279 7.56525 20.2397 7.06225 19.9506 6.75925C18.9051 5.66125 17.0348 3.69625 15.9645 2.57225C15.6685 2.26125 15.1506 2.47525 15.1506 2.90625V5.54225C15.1506 6.64825 16.0526 7.55925 17.1477 7.55925Z" fill="#2E1066"/>
<path d="M17.1477 7.55925C17.8378 7.56625 18.7972 7.56925 19.611 7.56625C20.0279 7.56525 20.2397 7.06225 19.9506 6.75925C18.9051 5.66125 17.0348 3.69625 15.9645 2.57225C15.6685 2.26125 15.1506 2.47525 15.1506 2.90625V5.54225C15.1506 6.64825 16.0526 7.55925 17.1477 7.55925Z" fill="#410F9E"/>
<path d="M17.1477 7.55925C17.8378 7.56625 18.7972 7.56925 19.611 7.56625C20.0279 7.56525 20.2397 7.06225 19.9506 6.75925C18.9051 5.66125 17.0348 3.69625 15.9645 2.57225C15.6685 2.26125 15.1506 2.47525 15.1506 2.90625V5.54225C15.1506 6.64825 16.0526 7.55925 17.1477 7.55925Z" fill="#453888"/>
<path d="M17.1477 7.55925C17.8378 7.56625 18.7972 7.56925 19.611 7.56625C20.0279 7.56525 20.2397 7.06225 19.9506 6.75925C18.9051 5.66125 17.0348 3.69625 15.9645 2.57225C15.6685 2.26125 15.1506 2.47525 15.1506 2.90625V5.54225C15.1506 6.64825 16.0526 7.55925 17.1477 7.55925Z" fill="#5946D7"/>
<path d="M17.1477 7.55925C17.8378 7.56625 18.7972 7.56925 19.611 7.56625C20.0279 7.56525 20.2397 7.06225 19.9506 6.75925C18.9051 5.66125 17.0348 3.69625 15.9645 2.57225C15.6685 2.26125 15.1506 2.47525 15.1506 2.90625V5.54225C15.1506 6.64825 16.0526 7.55925 17.1477 7.55925Z" fill="#6B59CC"/>
<g opacity="0.4">
<path fill-rule="evenodd" clip-rule="evenodd" d="M20.0545 9.02C19.6287 9.02 19.1238 9.03 18.8168 9.03C18.3614 9.03 17.7673 9.02 17.0149 9.02C15.203 9.01 13.7079 7.51 13.7079 5.68V2.46C13.7079 2.21 13.5099 2 13.2525 2H7.96535C5.5 2 3.5 4.03 3.5 6.51V17.29C3.5 19.89 5.59901 22 8.17327 22H16.0545C18.5099 22 20.5 19.99 20.5 17.51V9.47C20.5 9.22 20.302 9.02 20.0545 9.02Z" fill="#2E1066"/>
<path fill-rule="evenodd" clip-rule="evenodd" d="M20.0545 9.02C19.6287 9.02 19.1238 9.03 18.8168 9.03C18.3614 9.03 17.7673 9.02 17.0149 9.02C15.203 9.01 13.7079 7.51 13.7079 5.68V2.46C13.7079 2.21 13.5099 2 13.2525 2H7.96535C5.5 2 3.5 4.03 3.5 6.51V17.29C3.5 19.89 5.59901 22 8.17327 22H16.0545C18.5099 22 20.5 19.99 20.5 17.51V9.47C20.5 9.22 20.302 9.02 20.0545 9.02Z" fill="#410F9E"/>
<path fill-rule="evenodd" clip-rule="evenodd" d="M20.0545 9.02C19.6287 9.02 19.1238 9.03 18.8168 9.03C18.3614 9.03 17.7673 9.02 17.0149 9.02C15.203 9.01 13.7079 7.51 13.7079 5.68V2.46C13.7079 2.21 13.5099 2 13.2525 2H7.96535C5.5 2 3.5 4.03 3.5 6.51V17.29C3.5 19.89 5.59901 22 8.17327 22H16.0545C18.5099 22 20.5 19.99 20.5 17.51V9.47C20.5 9.22 20.302 9.02 20.0545 9.02Z" fill="#453888"/>
<path fill-rule="evenodd" clip-rule="evenodd" d="M20.0545 9.02C19.6287 9.02 19.1238 9.03 18.8168 9.03C18.3614 9.03 17.7673 9.02 17.0149 9.02C15.203 9.01 13.7079 7.51 13.7079 5.68V2.46C13.7079 2.21 13.5099 2 13.2525 2H7.96535C5.5 2 3.5 4.03 3.5 6.51V17.29C3.5 19.89 5.59901 22 8.17327 22H16.0545C18.5099 22 20.5 19.99 20.5 17.51V9.47C20.5 9.22 20.302 9.02 20.0545 9.02Z" fill="#5946D7"/>
<path fill-rule="evenodd" clip-rule="evenodd" d="M20.0545 9.02C19.6287 9.02 19.1238 9.03 18.8168 9.03C18.3614 9.03 17.7673 9.02 17.0149 9.02C15.203 9.01 13.7079 7.51 13.7079 5.68V2.46C13.7079 2.21 13.5099 2 13.2525 2H7.96535C5.5 2 3.5 4.03 3.5 6.51V17.29C3.5 19.89 5.59901 22 8.17327 22H16.0545C18.5099 22 20.5 19.99 20.5 17.51V9.47C20.5 9.22 20.302 9.02 20.0545 9.02Z" fill="#6B59CC"/>
</g>
<path fill-rule="evenodd" clip-rule="evenodd" d="M14.3118 16.3904H8.92568C8.51974 16.3904 8.18311 16.0504 8.18311 15.6404C8.18311 15.2304 8.51974 14.9004 8.92568 14.9004H14.3118C14.7178 14.9004 15.0544 15.2304 15.0544 15.6404C15.0544 16.0504 14.7178 16.3904 14.3118 16.3904Z" fill="#2E1066"/>
<path fill-rule="evenodd" clip-rule="evenodd" d="M14.3118 16.3904H8.92568C8.51974 16.3904 8.18311 16.0504 8.18311 15.6404C8.18311 15.2304 8.51974 14.9004 8.92568 14.9004H14.3118C14.7178 14.9004 15.0544 15.2304 15.0544 15.6404C15.0544 16.0504 14.7178 16.3904 14.3118 16.3904Z" fill="#410F9E"/>
<path fill-rule="evenodd" clip-rule="evenodd" d="M14.3118 16.3904H8.92568C8.51974 16.3904 8.18311 16.0504 8.18311 15.6404C8.18311 15.2304 8.51974 14.9004 8.92568 14.9004H14.3118C14.7178 14.9004 15.0544 15.2304 15.0544 15.6404C15.0544 16.0504 14.7178 16.3904 14.3118 16.3904Z" fill="#453888"/>
<path fill-rule="evenodd" clip-rule="evenodd" d="M14.3118 16.3904H8.92568C8.51974 16.3904 8.18311 16.0504 8.18311 15.6404C8.18311 15.2304 8.51974 14.9004 8.92568 14.9004H14.3118C14.7178 14.9004 15.0544 15.2304 15.0544 15.6404C15.0544 16.0504 14.7178 16.3904 14.3118 16.3904Z" fill="#5946D7"/>
<path fill-rule="evenodd" clip-rule="evenodd" d="M14.3118 16.3904H8.92568C8.51974 16.3904 8.18311 16.0504 8.18311 15.6404C8.18311 15.2304 8.51974 14.9004 8.92568 14.9004H14.3118C14.7178 14.9004 15.0544 15.2304 15.0544 15.6404C15.0544 16.0504 14.7178 16.3904 14.3118 16.3904Z" fill="#6B59CC"/>
<path d="M14.3118 16.3904H8.92568C8.51974 16.3904 8.18311 16.0504 8.18311 15.6404C8.18311 15.2304 8.51974 14.9004 8.92568 14.9004H14.3118C14.7178 14.9004 15.0544 15.2304 15.0544 15.6404C15.0544 16.0504 14.7178 16.3904 14.3118 16.3904" stroke="#2E1066" stroke-width="0.5"/>
<path d="M14.3118 16.3904H8.92568C8.51974 16.3904 8.18311 16.0504 8.18311 15.6404C8.18311 15.2304 8.51974 14.9004 8.92568 14.9004H14.3118C14.7178 14.9004 15.0544 15.2304 15.0544 15.6404C15.0544 16.0504 14.7178 16.3904 14.3118 16.3904" stroke="#410F9E" stroke-width="0.5"/>
<path d="M14.3118 16.3904H8.92568C8.51974 16.3904 8.18311 16.0504 8.18311 15.6404C8.18311 15.2304 8.51974 14.9004 8.92568 14.9004H14.3118C14.7178 14.9004 15.0544 15.2304 15.0544 15.6404C15.0544 16.0504 14.7178 16.3904 14.3118 16.3904" stroke="#453888" stroke-width="0.5"/>
<path d="M14.3118 16.3904H8.92568C8.51974 16.3904 8.18311 16.0504 8.18311 15.6404C8.18311 15.2304 8.51974 14.9004 8.92568 14.9004H14.3118C14.7178 14.9004 15.0544 15.2304 15.0544 15.6404C15.0544 16.0504 14.7178 16.3904 14.3118 16.3904" stroke="#5946D7" stroke-width="0.5"/>
<path d="M14.3118 16.3904H8.92568C8.51974 16.3904 8.18311 16.0504 8.18311 15.6404C8.18311 15.2304 8.51974 14.9004 8.92568 14.9004H14.3118C14.7178 14.9004 15.0544 15.2304 15.0544 15.6404C15.0544 16.0504 14.7178 16.3904 14.3118 16.3904" stroke="#6B59CC" stroke-width="0.5"/>
<path fill-rule="evenodd" clip-rule="evenodd" d="M8.92568 9.90039H12.2722C12.6782 9.90039 13.0148 10.2404 13.0148 10.6504C13.0148 11.0604 12.6782 11.3904 12.2722 11.3904H8.92568C8.51974 11.3904 8.18311 11.0604 8.18311 10.6504C8.18311 10.2404 8.51974 9.90039 8.92568 9.90039Z" fill="#2E1066"/>
<path fill-rule="evenodd" clip-rule="evenodd" d="M8.92568 9.90039H12.2722C12.6782 9.90039 13.0148 10.2404 13.0148 10.6504C13.0148 11.0604 12.6782 11.3904 12.2722 11.3904H8.92568C8.51974 11.3904 8.18311 11.0604 8.18311 10.6504C8.18311 10.2404 8.51974 9.90039 8.92568 9.90039Z" fill="#410F9E"/>
<path fill-rule="evenodd" clip-rule="evenodd" d="M8.92568 9.90039H12.2722C12.6782 9.90039 13.0148 10.2404 13.0148 10.6504C13.0148 11.0604 12.6782 11.3904 12.2722 11.3904H8.92568C8.51974 11.3904 8.18311 11.0604 8.18311 10.6504C8.18311 10.2404 8.51974 9.90039 8.92568 9.90039Z" fill="#453888"/>
<path fill-rule="evenodd" clip-rule="evenodd" d="M8.92568 9.90039H12.2722C12.6782 9.90039 13.0148 10.2404 13.0148 10.6504C13.0148 11.0604 12.6782 11.3904 12.2722 11.3904H8.92568C8.51974 11.3904 8.18311 11.0604 8.18311 10.6504C8.18311 10.2404 8.51974 9.90039 8.92568 9.90039Z" fill="#5946D7"/>
<path fill-rule="evenodd" clip-rule="evenodd" d="M8.92568 9.90039H12.2722C12.6782 9.90039 13.0148 10.2404 13.0148 10.6504C13.0148 11.0604 12.6782 11.3904 12.2722 11.3904H8.92568C8.51974 11.3904 8.18311 11.0604 8.18311 10.6504C8.18311 10.2404 8.51974 9.90039 8.92568 9.90039Z" fill="#6B59CC"/>
<path d="M8.92568 9.90039H12.2722C12.6782 9.90039 13.0148 10.2404 13.0148 10.6504C13.0148 11.0604 12.6782 11.3904 12.2722 11.3904H8.92568C8.51974 11.3904 8.18311 11.0604 8.18311 10.6504C8.18311 10.2404 8.51974 9.90039 8.92568 9.90039" stroke="#2E1066" stroke-width="0.5"/>
<path d="M8.92568 9.90039H12.2722C12.6782 9.90039 13.0148 10.2404 13.0148 10.6504C13.0148 11.0604 12.6782 11.3904 12.2722 11.3904H8.92568C8.51974 11.3904 8.18311 11.0604 8.18311 10.6504C8.18311 10.2404 8.51974 9.90039 8.92568 9.90039" stroke="#410F9E" stroke-width="0.5"/>
<path d="M8.92568 9.90039H12.2722C12.6782 9.90039 13.0148 10.2404 13.0148 10.6504C13.0148 11.0604 12.6782 11.3904 12.2722 11.3904H8.92568C8.51974 11.3904 8.18311 11.0604 8.18311 10.6504C8.18311 10.2404 8.51974 9.90039 8.92568 9.90039" stroke="#453888" stroke-width="0.5"/>
<path d="M8.92568 9.90039H12.2722C12.6782 9.90039 13.0148 10.2404 13.0148 10.6504C13.0148 11.0604 12.6782 11.3904 12.2722 11.3904H8.92568C8.51974 11.3904 8.18311 11.0604 8.18311 10.6504C8.18311 10.2404 8.51974 9.90039 8.92568 9.90039" stroke="#5946D7" stroke-width="0.5"/>
<path d="M8.92568 9.90039H12.2722C12.6782 9.90039 13.0148 10.2404 13.0148 10.6504C13.0148 11.0604 12.6782 11.3904 12.2722 11.3904H8.92568C8.51974 11.3904 8.18311 11.0604 8.18311 10.6504C8.18311 10.2404 8.51974 9.90039 8.92568 9.90039" stroke="#6B59CC" stroke-width="0.5"/>
</g>
<defs>
<clipPath id="clip0_5413_6507">
<rect width="24" height="24" fill="white"/>
</clipPath>
</defs>
</svg>
