<svg width="24" height="24" viewBox="0 0 24 24" fill="none" xmlns="http://www.w3.org/2000/svg">
<g clip-path="url(#clip0_5413_6392)">
<path fill-rule="evenodd" clip-rule="evenodd" d="M2 5C2 3.34315 3.34315 2 5 2H19C20.6569 2 22 3.34315 22 5V15.5151C22 16.8875 20.8874 18 19.5151 18H19V20.9194C19 21.7579 18.0301 22.2241 17.3753 21.7002L12.75 18H5C3.34315 18 2 16.6569 2 15V5ZM5 7C5 6.44772 5.44772 6 6 6H16C16.5523 6 17 6.44772 17 7C17 7.55228 16.5523 8 16 8H6C5.44772 8 5 7.55228 5 7ZM5 11C5 10.4477 5.44772 10 6 10H12C12.5523 10 13 10.4477 13 11C13 11.5523 12.5523 12 12 12H6C5.44772 12 5 11.5523 5 11Z" fill="#2E1066"/>
<path fill-rule="evenodd" clip-rule="evenodd" d="M2 5C2 3.34315 3.34315 2 5 2H19C20.6569 2 22 3.34315 22 5V15.5151C22 16.8875 20.8874 18 19.5151 18H19V20.9194C19 21.7579 18.0301 22.2241 17.3753 21.7002L12.75 18H5C3.34315 18 2 16.6569 2 15V5ZM5 7C5 6.44772 5.44772 6 6 6H16C16.5523 6 17 6.44772 17 7C17 7.55228 16.5523 8 16 8H6C5.44772 8 5 7.55228 5 7ZM5 11C5 10.4477 5.44772 10 6 10H12C12.5523 10 13 10.4477 13 11C13 11.5523 12.5523 12 12 12H6C5.44772 12 5 11.5523 5 11Z" fill="#410F9E"/>
<path fill-rule="evenodd" clip-rule="evenodd" d="M2 5C2 3.34315 3.34315 2 5 2H19C20.6569 2 22 3.34315 22 5V15.5151C22 16.8875 20.8874 18 19.5151 18H19V20.9194C19 21.7579 18.0301 22.2241 17.3753 21.7002L12.75 18H5C3.34315 18 2 16.6569 2 15V5ZM5 7C5 6.44772 5.44772 6 6 6H16C16.5523 6 17 6.44772 17 7C17 7.55228 16.5523 8 16 8H6C5.44772 8 5 7.55228 5 7ZM5 11C5 10.4477 5.44772 10 6 10H12C12.5523 10 13 10.4477 13 11C13 11.5523 12.5523 12 12 12H6C5.44772 12 5 11.5523 5 11Z" fill="#453888"/>
<path fill-rule="evenodd" clip-rule="evenodd" d="M2 5C2 3.34315 3.34315 2 5 2H19C20.6569 2 22 3.34315 22 5V15.5151C22 16.8875 20.8874 18 19.5151 18H19V20.9194C19 21.7579 18.0301 22.2241 17.3753 21.7002L12.75 18H5C3.34315 18 2 16.6569 2 15V5ZM5 7C5 6.44772 5.44772 6 6 6H16C16.5523 6 17 6.44772 17 7C17 7.55228 16.5523 8 16 8H6C5.44772 8 5 7.55228 5 7ZM5 11C5 10.4477 5.44772 10 6 10H12C12.5523 10 13 10.4477 13 11C13 11.5523 12.5523 12 12 12H6C5.44772 12 5 11.5523 5 11Z" fill="#5946D7"/>
<path fill-rule="evenodd" clip-rule="evenodd" d="M2 5C2 3.34315 3.34315 2 5 2H19C20.6569 2 22 3.34315 22 5V15.5151C22 16.8875 20.8874 18 19.5151 18H19V20.9194C19 21.7579 18.0301 22.2241 17.3753 21.7002L12.75 18H5C3.34315 18 2 16.6569 2 15V5ZM5 7C5 6.44772 5.44772 6 6 6H16C16.5523 6 17 6.44772 17 7C17 7.55228 16.5523 8 16 8H6C5.44772 8 5 7.55228 5 7ZM5 11C5 10.4477 5.44772 10 6 10H12C12.5523 10 13 10.4477 13 11C13 11.5523 12.5523 12 12 12H6C5.44772 12 5 11.5523 5 11Z" fill="#6B59CC"/>
</g>
<defs>
<clipPath id="clip0_5413_6392">
<rect width="24" height="24" fill="white"/>
</clipPath>
</defs>
</svg>
