<svg width="24" height="24" viewBox="0 0 24 24" fill="none" xmlns="http://www.w3.org/2000/svg">
<path d="M2 7C2 5.34315 3.34315 4 5 4H19C20.6569 4 22 5.34315 22 7V8H2V7Z" fill="#2E1066"/>
<path d="M2 7C2 5.34315 3.34315 4 5 4H19C20.6569 4 22 5.34315 22 7V8H2V7Z" fill="#410F9E"/>
<path d="M2 7C2 5.34315 3.34315 4 5 4H19C20.6569 4 22 5.34315 22 7V8H2V7Z" fill="#453888"/>
<path d="M2 7C2 5.34315 3.34315 4 5 4H19C20.6569 4 22 5.34315 22 7V8H2V7Z" fill="#5946D7"/>
<path d="M2 7C2 5.34315 3.34315 4 5 4H19C20.6569 4 22 5.34315 22 7V8H2V7Z" fill="#6B59CC"/>
<path fill-rule="evenodd" clip-rule="evenodd" d="M2 10H22V17C22 18.6569 20.6569 20 19 20H5C3.34315 20 2 18.6569 2 17V10ZM18 15C18 15.5523 17.5523 16 17 16C16.4477 16 16 15.5523 16 15C16 14.4477 16.4477 14 17 14C17.5523 14 18 14.4477 18 15Z" fill="#2E1066"/>
<path fill-rule="evenodd" clip-rule="evenodd" d="M2 10H22V17C22 18.6569 20.6569 20 19 20H5C3.34315 20 2 18.6569 2 17V10ZM18 15C18 15.5523 17.5523 16 17 16C16.4477 16 16 15.5523 16 15C16 14.4477 16.4477 14 17 14C17.5523 14 18 14.4477 18 15Z" fill="#410F9E"/>
<path fill-rule="evenodd" clip-rule="evenodd" d="M2 10H22V17C22 18.6569 20.6569 20 19 20H5C3.34315 20 2 18.6569 2 17V10ZM18 15C18 15.5523 17.5523 16 17 16C16.4477 16 16 15.5523 16 15C16 14.4477 16.4477 14 17 14C17.5523 14 18 14.4477 18 15Z" fill="#453888"/>
<path fill-rule="evenodd" clip-rule="evenodd" d="M2 10H22V17C22 18.6569 20.6569 20 19 20H5C3.34315 20 2 18.6569 2 17V10ZM18 15C18 15.5523 17.5523 16 17 16C16.4477 16 16 15.5523 16 15C16 14.4477 16.4477 14 17 14C17.5523 14 18 14.4477 18 15Z" fill="#5946D7"/>
<path fill-rule="evenodd" clip-rule="evenodd" d="M2 10H22V17C22 18.6569 20.6569 20 19 20H5C3.34315 20 2 18.6569 2 17V10ZM18 15C18 15.5523 17.5523 16 17 16C16.4477 16 16 15.5523 16 15C16 14.4477 16.4477 14 17 14C17.5523 14 18 14.4477 18 15Z" fill="#6B59CC"/>
</svg>
