<svg width="24" height="24" viewBox="0 0 24 24" fill="none" xmlns="http://www.w3.org/2000/svg">
<g clip-path="url(#clip0_5413_5932)">
<path fill-rule="evenodd" clip-rule="evenodd" d="M19.5961 12.4111L13.9081 13.9351C12.8981 14.2061 11.8601 13.6061 11.5891 12.5961L10.0651 6.90809C9.79409 5.89809 10.3941 4.86009 11.4041 4.58909L17.0921 3.06509C18.1021 2.79409 19.1401 3.39409 19.4111 4.40409L20.9351 10.0921C21.2061 11.1021 20.6061 12.1401 19.5961 12.4111Z" fill="#2E1066"/>
<path fill-rule="evenodd" clip-rule="evenodd" d="M19.5961 12.4111L13.9081 13.9351C12.8981 14.2061 11.8601 13.6061 11.5891 12.5961L10.0651 6.90809C9.79409 5.89809 10.3941 4.86009 11.4041 4.58909L17.0921 3.06509C18.1021 2.79409 19.1401 3.39409 19.4111 4.40409L20.9351 10.0921C21.2061 11.1021 20.6061 12.1401 19.5961 12.4111Z" fill="#410F9E"/>
<path fill-rule="evenodd" clip-rule="evenodd" d="M19.5961 12.4111L13.9081 13.9351C12.8981 14.2061 11.8601 13.6061 11.5891 12.5961L10.0651 6.90809C9.79409 5.89809 10.3941 4.86009 11.4041 4.58909L17.0921 3.06509C18.1021 2.79409 19.1401 3.39409 19.4111 4.40409L20.9351 10.0921C21.2061 11.1021 20.6061 12.1401 19.5961 12.4111Z" fill="#453888"/>
<path fill-rule="evenodd" clip-rule="evenodd" d="M19.5961 12.4111L13.9081 13.9351C12.8981 14.2061 11.8601 13.6061 11.5891 12.5961L10.0651 6.90809C9.79409 5.89809 10.3941 4.86009 11.4041 4.58909L17.0921 3.06509C18.1021 2.79409 19.1401 3.39409 19.4111 4.40409L20.9351 10.0921C21.2061 11.1021 20.6061 12.1401 19.5961 12.4111Z" fill="#5946D7"/>
<path fill-rule="evenodd" clip-rule="evenodd" d="M19.5961 12.4111L13.9081 13.9351C12.8981 14.2061 11.8601 13.6061 11.5891 12.5961L10.0651 6.90809C9.79409 5.89809 10.3941 4.86009 11.4041 4.58909L17.0921 3.06509C18.1021 2.79409 19.1401 3.39409 19.4111 4.40409L20.9351 10.0921C21.2061 11.1021 20.6061 12.1401 19.5961 12.4111Z" fill="#6B59CC"/>
<path fill-rule="evenodd" clip-rule="evenodd" d="M19.5961 12.4111L13.9081 13.9351C12.8981 14.2061 11.8601 13.6061 11.5891 12.5961L10.0651 6.90809C9.79409 5.89809 10.3941 4.86009 11.4041 4.58909L17.0921 3.06509C18.1021 2.79409 19.1401 3.39409 19.4111 4.40409L20.9351 10.0921C21.2061 11.1021 20.6061 12.1401 19.5961 12.4111Z" stroke="#2E1066" stroke-width="1.5" stroke-linecap="round" stroke-linejoin="round"/>
<path fill-rule="evenodd" clip-rule="evenodd" d="M19.5961 12.4111L13.9081 13.9351C12.8981 14.2061 11.8601 13.6061 11.5891 12.5961L10.0651 6.90809C9.79409 5.89809 10.3941 4.86009 11.4041 4.58909L17.0921 3.06509C18.1021 2.79409 19.1401 3.39409 19.4111 4.40409L20.9351 10.0921C21.2061 11.1021 20.6061 12.1401 19.5961 12.4111Z" stroke="#410F9E" stroke-width="1.5" stroke-linecap="round" stroke-linejoin="round"/>
<path fill-rule="evenodd" clip-rule="evenodd" d="M19.5961 12.4111L13.9081 13.9351C12.8981 14.2061 11.8601 13.6061 11.5891 12.5961L10.0651 6.90809C9.79409 5.89809 10.3941 4.86009 11.4041 4.58909L17.0921 3.06509C18.1021 2.79409 19.1401 3.39409 19.4111 4.40409L20.9351 10.0921C21.2061 11.1021 20.6061 12.1401 19.5961 12.4111Z" stroke="#453888" stroke-width="1.5" stroke-linecap="round" stroke-linejoin="round"/>
<path fill-rule="evenodd" clip-rule="evenodd" d="M19.5961 12.4111L13.9081 13.9351C12.8981 14.2061 11.8601 13.6061 11.5891 12.5961L10.0651 6.90809C9.79409 5.89809 10.3941 4.86009 11.4041 4.58909L17.0921 3.06509C18.1021 2.79409 19.1401 3.39409 19.4111 4.40409L20.9351 10.0921C21.2061 11.1021 20.6061 12.1401 19.5961 12.4111Z" stroke="#5946D7" stroke-width="1.5" stroke-linecap="round" stroke-linejoin="round"/>
<path fill-rule="evenodd" clip-rule="evenodd" d="M19.5961 12.4111L13.9081 13.9351C12.8981 14.2061 11.8601 13.6061 11.5891 12.5961L10.0651 6.90809C9.79409 5.89809 10.3941 4.86009 11.4041 4.58909L17.0921 3.06509C18.1021 2.79409 19.1401 3.39409 19.4111 4.40409L20.9351 10.0921C21.2061 11.1021 20.6061 12.1401 19.5961 12.4111Z" stroke="#6B59CC" stroke-width="1.5" stroke-linecap="round" stroke-linejoin="round"/>
<g opacity="0.4">
<path fill-rule="evenodd" clip-rule="evenodd" d="M9.75 21C11.2688 21 12.5 19.7688 12.5 18.25C12.5 16.7312 11.2688 15.5 9.75 15.5C8.23122 15.5 7 16.7312 7 18.25C7 19.7688 8.23122 21 9.75 21Z" stroke="#2E1066" stroke-width="1.5" stroke-linecap="round" stroke-linejoin="round"/>
<path fill-rule="evenodd" clip-rule="evenodd" d="M9.75 21C11.2688 21 12.5 19.7688 12.5 18.25C12.5 16.7312 11.2688 15.5 9.75 15.5C8.23122 15.5 7 16.7312 7 18.25C7 19.7688 8.23122 21 9.75 21Z" stroke="#410F9E" stroke-width="1.5" stroke-linecap="round" stroke-linejoin="round"/>
<path fill-rule="evenodd" clip-rule="evenodd" d="M9.75 21C11.2688 21 12.5 19.7688 12.5 18.25C12.5 16.7312 11.2688 15.5 9.75 15.5C8.23122 15.5 7 16.7312 7 18.25C7 19.7688 8.23122 21 9.75 21Z" stroke="#453888" stroke-width="1.5" stroke-linecap="round" stroke-linejoin="round"/>
<path fill-rule="evenodd" clip-rule="evenodd" d="M9.75 21C11.2688 21 12.5 19.7688 12.5 18.25C12.5 16.7312 11.2688 15.5 9.75 15.5C8.23122 15.5 7 16.7312 7 18.25C7 19.7688 8.23122 21 9.75 21Z" stroke="#5946D7" stroke-width="1.5" stroke-linecap="round" stroke-linejoin="round"/>
<path fill-rule="evenodd" clip-rule="evenodd" d="M9.75 21C11.2688 21 12.5 19.7688 12.5 18.25C12.5 16.7312 11.2688 15.5 9.75 15.5C8.23122 15.5 7 16.7312 7 18.25C7 19.7688 8.23122 21 9.75 21Z" stroke="#6B59CC" stroke-width="1.5" stroke-linecap="round" stroke-linejoin="round"/>
<path d="M2 3.63287L3.666 3.18687C4.733 2.90087 5.83 3.53387 6.116 4.60087" stroke="#2E1066" stroke-width="1.5" stroke-linecap="round" stroke-linejoin="round"/>
<path d="M2 3.63287L3.666 3.18687C4.733 2.90087 5.83 3.53387 6.116 4.60087" stroke="#410F9E" stroke-width="1.5" stroke-linecap="round" stroke-linejoin="round"/>
<path d="M2 3.63287L3.666 3.18687C4.733 2.90087 5.83 3.53387 6.116 4.60087" stroke="#453888" stroke-width="1.5" stroke-linecap="round" stroke-linejoin="round"/>
<path d="M2 3.63287L3.666 3.18687C4.733 2.90087 5.83 3.53387 6.116 4.60087" stroke="#5946D7" stroke-width="1.5" stroke-linecap="round" stroke-linejoin="round"/>
<path d="M2 3.63287L3.666 3.18687C4.733 2.90087 5.83 3.53387 6.116 4.60087" stroke="#6B59CC" stroke-width="1.5" stroke-linecap="round" stroke-linejoin="round"/>
<path d="M6.11597 4.60059L9.05997 15.5866" stroke="#2E1066" stroke-width="1.5" stroke-linecap="round" stroke-linejoin="round"/>
<path d="M6.11597 4.60059L9.05997 15.5866" stroke="#410F9E" stroke-width="1.5" stroke-linecap="round" stroke-linejoin="round"/>
<path d="M6.11597 4.60059L9.05997 15.5866" stroke="#453888" stroke-width="1.5" stroke-linecap="round" stroke-linejoin="round"/>
<path d="M6.11597 4.60059L9.05997 15.5866" stroke="#5946D7" stroke-width="1.5" stroke-linecap="round" stroke-linejoin="round"/>
<path d="M6.11597 4.60059L9.05997 15.5866" stroke="#6B59CC" stroke-width="1.5" stroke-linecap="round" stroke-linejoin="round"/>
<path d="M21.5499 15.1094L12.4099 17.5494" stroke="#2E1066" stroke-width="1.5" stroke-linecap="round" stroke-linejoin="round"/>
<path d="M21.5499 15.1094L12.4099 17.5494" stroke="#410F9E" stroke-width="1.5" stroke-linecap="round" stroke-linejoin="round"/>
<path d="M21.5499 15.1094L12.4099 17.5494" stroke="#453888" stroke-width="1.5" stroke-linecap="round" stroke-linejoin="round"/>
<path d="M21.5499 15.1094L12.4099 17.5494" stroke="#5946D7" stroke-width="1.5" stroke-linecap="round" stroke-linejoin="round"/>
<path d="M21.5499 15.1094L12.4099 17.5494" stroke="#6B59CC" stroke-width="1.5" stroke-linecap="round" stroke-linejoin="round"/>
</g>
</g>
<defs>
<clipPath id="clip0_5413_5932">
<rect width="24" height="24" fill="white"/>
</clipPath>
</defs>
</svg>
