<svg width="12" height="12" viewBox="0 0 12 12" fill="none" xmlns="http://www.w3.org/2000/svg">
<path d="M11.8025 4.35394C11.7658 4.24594 11.6984 4.15105 11.6084 4.08097C11.5184 4.01089 11.4099 3.9687 11.2962 3.9596L7.9706 3.69535L6.53151 0.50977C6.48568 0.407169 6.41114 0.320024 6.31687 0.258854C6.22261 0.197683 6.11266 0.165101 6.00029 0.165039C5.88791 0.164977 5.77793 0.197439 5.68359 0.258506C5.58926 0.319573 5.51462 0.406636 5.46868 0.509187L4.0296 3.69535L0.704013 3.9596C0.592279 3.96846 0.485461 4.00931 0.396337 4.07728C0.307214 4.14525 0.239559 4.23746 0.201468 4.34287C0.163376 4.44828 0.15646 4.56244 0.181548 4.67168C0.206635 4.78092 0.262664 4.88062 0.34293 4.95885L2.80051 7.3546L1.93135 11.1183C1.90496 11.2322 1.91341 11.3514 1.95562 11.4605C1.99784 11.5695 2.07185 11.6634 2.16806 11.7299C2.26428 11.7963 2.37825 11.8323 2.49519 11.8332C2.61213 11.8341 2.72663 11.7998 2.82385 11.7349L6.0001 9.61735L9.17635 11.7349C9.27571 11.8008 9.39289 11.8348 9.51213 11.8322C9.63137 11.8296 9.74695 11.7905 9.84333 11.7202C9.9397 11.65 10.0122 11.5519 10.0512 11.4391C10.0902 11.3264 10.0937 11.2045 10.0613 11.0897L8.99435 7.35635L11.6403 4.97519C11.8136 4.81885 11.8772 4.57502 11.8025 4.35394Z" fill="#EF9002"/>
</svg>
